<?xml version="1.0" standalone="no"?>
<!DOCTYPE svg PUBLIC "-//W3C//DTD SVG 1.1//EN" "http://www.w3.org/Graphics/SVG/1.1/DTD/svg11.dtd" >
<svg>
<metadata>
Created by FontForge 20090622 at Wed Sep 30 16:05:17 2015
 By deploy user
2000 Albert-Jan Pool, published by Fontshop International for the FontFont library.
</metadata>
<defs>
<font id="DIN-RegularItalic" horiz-adv-x="496" >
  <font-face 
    font-family="DIN-RegularItalic"
    font-weight="500"
    font-style="italic"
    font-stretch="normal"
    units-per-em="1000"
    panose-1="0 0 0 0 0 0 0 0 0 0"
    ascent="800"
    descent="-200"
    x-height="493"
    cap-height="712"
    bbox="-148 -225 1066 984"
    underline-thickness="49"
    underline-position="-109"
    unicode-range="U+0020-U+FB02"
  />
<missing-glyph horiz-adv-x="1000" 
 />
    <glyph glyph-name=".notdef" horiz-adv-x="1000" 
 />
    <glyph glyph-name=".null" horiz-adv-x="0" 
 />
    <glyph glyph-name="nonmarkingreturn" horiz-adv-x="333" 
 />
    <glyph glyph-name="space" unicode=" " horiz-adv-x="236" 
 />
    <glyph glyph-name="exclam" unicode="!" horiz-adv-x="301" 
d="M297 712l-112 -515h-60l91 515h81zM176 86l-16 -86h-83l17 86h82z" />
    <glyph glyph-name="quotedbl" unicode="&#x22;" horiz-adv-x="403" 
d="M414 712l-35 -172h-76l35 172h76zM252 712l-34 -172h-76l35 172h75z" />
    <glyph glyph-name="numbersign" unicode="#" horiz-adv-x="627" 
d="M629 498l-13 -63h-90l-53 -146h88l-12 -62h-97l-80 -227h-72l79 227h-152l-79 -227h-74l80 227h-84l12 62h93l53 146h-91l13 63h98l76 216h73l-75 -216h152l75 216h73l-75 -216h82zM453 435h-153l-52 -146h152z" />
    <glyph glyph-name="dollar" unicode="$" horiz-adv-x="567" 
d="M560 636l-52 -45q-50 58 -124 63l-51 -267l25 -5q79 -17 116.5 -58.5t37.5 -112.5q0 -99 -72 -156t-178 -61l-20 -108h-57l21 109q-62 4 -106.5 26.5t-83.5 70.5l55 48q59 -75 150 -81l52 272l-21 5q-143 35 -143 157q0 37 13.5 74t40 70.5t73.5 55.5t106 25l17 88h57
l-17 -90q100 -8 161 -80zM439 207q0 55 -29 78t-89 36l-50 -263q73 7 120.5 48t47.5 101zM334 655q-68 -7 -110.5 -53t-42.5 -106q0 -76 104 -98z" />
    <glyph glyph-name="percent" unicode="%" horiz-adv-x="800" 
d="M388 614q0 -20 -3 -35l-19 -99q-26 -135 -151 -135q-43 0 -75.5 25.5t-32.5 79.5q0 20 3 35l18 99q26 135 152 135q43 0 75.5 -25.5t32.5 -79.5zM737 263q0 -20 -3 -35l-18 -99q-26 -135 -152 -135q-43 0 -75.5 25.5t-32.5 79.5q0 20 3 35l19 99q26 135 151 135
q43 0 75.5 -25.5t32.5 -79.5zM682 712l-459 -712h-60l458 712h61zM334 610q0 60 -61 60q-74 0 -90 -86l-19 -103q-3 -13 -3 -27q0 -60 61 -60q73 0 89 86l20 103q3 13 3 27zM683 259q0 60 -61 60q-73 0 -89 -86l-20 -103q-2 -9 -2 -27q0 -60 60 -60q74 0 90 86l19 103
q3 13 3 27z" />
    <glyph glyph-name="ampersand" unicode="&#x26;" horiz-adv-x="704" 
d="M617 348q-22 -135 -104 -219l80 -129h-87l-48 78q-36 -33 -91.5 -58.5t-122.5 -25.5q-81 0 -132.5 44.5t-51.5 124.5q0 85 47 139.5t147 115.5q-47 77 -47 131q0 67 44 118t129 51q64 0 98 -38t34 -92q0 -85 -106 -151l-57 -36l128 -215q52 57 70 162h70zM424 133
l-139 231q-80 -49 -116 -90.5t-36 -103.5q0 -49 32 -80.5t83 -31.5q93 0 176 75zM442 587q0 34 -18.5 51.5t-47.5 17.5q-43 0 -69.5 -30.5t-26.5 -77.5q0 -36 38 -96l40 25q42 26 63 50t21 60z" />
    <glyph glyph-name="quotesingle" unicode="'" horiz-adv-x="242" 
d="M252 712l-34 -172h-76l35 172h75z" />
    <glyph glyph-name="parenleft" unicode="(" horiz-adv-x="284" 
d="M324 753q-44 -37 -62 -62q-23 -33 -30 -72l-101 -509q-7 -35 -7 -56q0 -48 45 -101l-52 -47q-64 74 -64 138q0 28 9 70l102 511q13 62 37 97q27 39 83 84z" />
    <glyph glyph-name="parenright" unicode=")" horiz-adv-x="284" 
d="M272 668q0 -32 -8 -70l-102 -511q-13 -59 -38 -97q-27 -39 -83 -84l-40 53q44 37 62 62q23 33 30 72l102 509q7 35 7 56q0 47 -46 101l53 47q63 -73 63 -138z" />
    <glyph glyph-name="asterisk" unicode="*" horiz-adv-x="451" 
d="M455 566l-124 -39l99 -83l-35 -41l-95 89l-23 -129l-54 11l29 127l-121 -45l-18 51l124 39l-99 83l35 41l95 -88l23 128l54 -11l-29 -127l121 45z" />
    <glyph glyph-name="plus" unicode="+" 
d="M458 299l-13 -64h-165l-35 -177h-66l35 177h-166l12 64h167l36 177h65l-35 -177h165z" />
    <glyph glyph-name="comma" unicode="," horiz-adv-x="252" 
d="M138 89l-30 -153l-101 -80l47 233h84z" />
    <glyph glyph-name="hyphen" unicode="-" horiz-adv-x="405" 
d="M345 302l-13 -65h-262l13 65h262z" />
    <glyph glyph-name="period" unicode="." horiz-adv-x="257" 
d="M143 95l-18 -95h-91l19 95h90z" />
    <glyph glyph-name="slash" unicode="/" horiz-adv-x="341" 
d="M450 786l-442 -860h-72l443 860h71z" />
    <glyph glyph-name="zero" unicode="0" 
d="M493 563q0 -22 -5 -47l-64 -322q-22 -108 -85 -154t-135 -46q-65 0 -110 39.5t-45 115.5q0 22 5 47l63 322q22 108 85 154t135 46q65 0 110.5 -39.5t45.5 -115.5zM423 561q0 48 -26 71.5t-62 23.5q-50 0 -92 -32.5t-56 -104.5l-63 -324q-6 -28 -6 -44q0 -48 26.5 -71.5
t62.5 -23.5q50 0 92 32.5t56 104.5l63 324q5 23 5 44z" />
    <glyph glyph-name="one" unicode="1" 
d="M409 712l-143 -712h-70l127 629l-152 -114l16 85l151 112h71z" />
    <glyph glyph-name="two" unicode="2" 
d="M496 555q0 -40 -14.5 -76t-31 -57.5t-44.5 -51.5l-289 -308h291l-12 -62h-380l13 62l333 356q34 36 48.5 66t14.5 70q0 50 -25 76t-70 26q-52 0 -90.5 -31t-52.5 -97h-71q18 93 75 141.5t142 48.5q76 0 119.5 -42.5t43.5 -120.5z" />
    <glyph glyph-name="three" unicode="3" 
d="M482 564q0 -68 -32 -122t-92 -77q76 -29 76 -129q0 -97 -63.5 -170t-168.5 -73q-86 0 -130 43t-44 114q0 18 1 28h69q-2 -14 -2 -22q0 -45 27.5 -73t78.5 -28q69 0 115.5 53t46.5 127q0 99 -109 99h-16l12 60h16q64 0 105 49.5t41 117.5q0 45 -25.5 70.5t-72.5 25.5
q-49 0 -87.5 -32t-52.5 -85h-72q23 89 81.5 134t139.5 45q72 0 115 -42t43 -113z" />
    <glyph glyph-name="four" unicode="4" 
d="M450 179l-14 -64h-84l-23 -115h-68l23 115h-273l12 64l347 533h77l-346 -533h195l39 196h69l-39 -196h85z" />
    <glyph glyph-name="five" unicode="5" 
d="M516 712l-12 -62h-280l-45 -226q49 46 126 46q72 0 108.5 -42t36.5 -107q0 -36 -9 -86q-25 -129 -80 -184q-58 -58 -148 -58q-82 0 -121 42.5t-39 106.5q0 15 1 26h68q-1 -8 -1 -21q0 -41 23.5 -66.5t67.5 -25.5q72 0 106.5 47.5t51.5 132.5q9 49 9 77q0 98 -87 98
q-89 0 -131 -72h-62l75 374h342z" />
    <glyph glyph-name="six" unicode="6" 
d="M432 224q0 -98 -60.5 -164t-145.5 -66q-89 0 -132.5 52t-43.5 126q0 47 16 89t58 104l231 347h76l-215 -321q29 11 55 11q75 0 118 -49.5t43 -128.5zM361 223q0 52 -27 86.5t-76 34.5q-45 0 -78 -28t-47 -65t-14 -74q0 -52 27 -86.5t76 -34.5q64 0 101.5 51t37.5 116z
" />
    <glyph glyph-name="seven" unicode="7" 
d="M544 712l-12 -62l-358 -650h-77l358 650h-237l-21 -107h-68l33 169h382z" />
    <glyph glyph-name="eight" unicode="8" 
d="M494 557q0 -64 -33 -116t-89 -77q70 -49 70 -142q0 -92 -60.5 -160t-170.5 -68q-74 0 -124.5 43.5t-50.5 126.5q0 150 139 210q-60 45 -60 120q0 96 61.5 160t154.5 64q71 0 117 -43.5t46 -117.5zM372 224q0 52 -29.5 82.5t-78.5 30.5q-70 0 -114 -48.5t-44 -119.5
q0 -52 30 -82.5t79 -30.5q71 0 114 48t43 120zM424 556q0 45 -25.5 72.5t-71.5 27.5q-64 0 -103.5 -48.5t-39.5 -109.5q0 -45 26 -72.5t72 -27.5q64 0 103 48.5t39 109.5z" />
    <glyph glyph-name="nine" unicode="9" 
d="M491 540q0 -47 -16.5 -89t-58.5 -104l-231 -347h-75l214 321q-29 -11 -54 -11q-75 0 -118 49.5t-43 128.5q0 98 60.5 164t145.5 66q89 0 132.5 -52t43.5 -126zM422 535q0 52 -27.5 86.5t-76.5 34.5q-64 0 -101 -51t-37 -116q0 -52 27 -86.5t76 -34.5q45 0 78 28t47 65
t14 74z" />
    <glyph glyph-name="colon" unicode=":" horiz-adv-x="282" 
d="M227 395l-19 -95h-91l20 95h90zM170 95l-19 -95h-90l19 95h90z" />
    <glyph glyph-name="semicolon" unicode=";" horiz-adv-x="282" 
d="M167 89l-30 -153l-101 -80l46 233h85zM228 395l-19 -95h-90l19 95h90z" />
    <glyph glyph-name="less" unicode="&#x3c;" 
d="M436 471l-15 -78l-261 -124l213 -126l-14 -71l-281 171l13 62z" />
    <glyph glyph-name="equal" unicode="=" 
d="M443 219l-14 -65h-396l13 65h397zM475 384l-13 -64h-398l14 64h397z" />
    <glyph glyph-name="greater" unicode="&#x3e;" 
d="M431 293l-13 -62l-344 -166l15 78l260 124l-213 126l15 71z" />
    <glyph glyph-name="question" unicode="?" horiz-adv-x="474" 
d="M491 571q0 -77 -70 -157l-101 -118q-20 -23 -29 -58l-10 -42h-70l10 45q11 53 48 95l100 115q51 59 51 116q0 38 -23.5 63.5t-65.5 25.5q-50 0 -85 -31t-46 -85h-72q16 84 72.5 131t141.5 47q62 0 105.5 -40t43.5 -107zM272 86l-16 -86h-83l17 86h82z" />
    <glyph glyph-name="at" unicode="@" horiz-adv-x="679" 
d="M667 551q0 -25 -7 -60l-98 -491h-66l11 55q-52 -62 -136 -62q-67 0 -102.5 40.5t-35.5 101.5q0 40 12 103q27 133 74 185q55 60 140 60q82 0 118 -65l16 80q6 27 6 48q0 42 -21 69q-30 39 -97 39h-122q-67 0 -113 -40q-43 -38 -59 -116l-67 -336q-7 -32 -7 -53
q0 -35 38 -70l-53 -46q-53 52 -53 109q0 22 7 59l66 335q12 62 31 98.5t49 64.5q57 54 160 54h140q91 0 136 -56q33 -42 33 -106zM553 328q0 95 -86 95q-68 0 -101.5 -46.5t-52.5 -138.5q-12 -57 -12 -90q0 -39 19.5 -67t67.5 -28q68 0 101.5 46.5t52.5 138.5q11 52 11 90z
" />
    <glyph glyph-name="A" unicode="A" horiz-adv-x="581" 
d="M521 0h-74l-22 162h-296l-87 -162h-78l389 712h61zM418 223l-53 384l-204 -384h257z" />
    <glyph glyph-name="B" unicode="B" horiz-adv-x="636" 
d="M610 552q0 -56 -31 -109t-102 -80q83 -39 83 -135q0 -101 -65 -164.5t-165 -63.5h-281l143 712h239q54 0 92 -16t55.5 -42t24.5 -50.5t7 -51.5zM487 226q0 50 -30 77.5t-83 27.5h-186l-54 -267h194q70 0 114.5 45.5t44.5 116.5zM536 547q0 101 -114 101h-170l-51 -252
h178q72 0 114.5 44t42.5 107z" />
    <glyph glyph-name="C" unicode="C" horiz-adv-x="607" 
d="M592 509h-73q0 67 -35 106.5t-96 39.5q-78 0 -138 -60q-29 -29 -46 -79t-38 -160q-24 -124 -24 -168q0 -60 39 -95.5t95 -35.5q69 0 118 42t72 104h74q-31 -98 -103 -153.5t-164 -55.5q-87 0 -145.5 51.5t-58.5 140.5q0 45 24 170q24 129 44 185.5t62 98.5q78 78 189 78
q99 0 151 -57.5t53 -151.5z" />
    <glyph glyph-name="D" unicode="D" horiz-adv-x="639" 
d="M613 518q0 -44 -21 -154q-25 -130 -50 -193.5t-72 -105.5q-73 -65 -185 -65h-236l143 712h222q84 0 141.5 -45.5t57.5 -148.5zM541 515q0 63 -35 98.5t-106 35.5h-148l-118 -586h147q87 0 143 51q32 29 53.5 85.5t41.5 164.5q22 114 22 151z" />
    <glyph glyph-name="E" unicode="E" horiz-adv-x="572" 
d="M611 712l-13 -63h-346l-52 -258h297l-12 -63h-297l-54 -265h353l-12 -63h-426l143 712h419z" />
    <glyph glyph-name="F" unicode="F" horiz-adv-x="550" 
d="M611 712l-13 -63h-346l-53 -269h296l-13 -63h-297l-64 -317h-72l143 712h419z" />
    <glyph glyph-name="G" unicode="G" horiz-adv-x="619" 
d="M593 508h-73q0 67 -35.5 107t-95.5 40q-79 0 -139 -60q-29 -29 -46.5 -78.5t-38.5 -160.5q-23 -121 -23 -166q0 -64 41.5 -98.5t95.5 -34.5q63 0 120.5 48t76.5 146l12 59h-167l11 62h239l-21 -113q-23 -122 -89 -188q-77 -77 -187 -77q-87 0 -146 52t-59 140
q0 45 24 170q25 133 44.5 187.5t60.5 95.5q36 36 86.5 57.5t104.5 21.5q99 0 151 -58t53 -152z" />
    <glyph glyph-name="H" unicode="H" horiz-adv-x="661" 
d="M657 712l-143 -712h-72l66 328h-320l-67 -328h-72l143 712h72l-63 -321h320l64 321h72z" />
    <glyph glyph-name="I" unicode="I" horiz-adv-x="268" 
d="M264 712l-143 -712h-72l143 712h72z" />
    <glyph glyph-name="J" unicode="J" horiz-adv-x="476" 
d="M482 712l-100 -499q-21 -107 -85 -163t-158 -56q-98 0 -151 66l53 45q40 -48 104 -48q62 0 106.5 43t60.5 125l97 487h73z" />
    <glyph glyph-name="K" unicode="K" horiz-adv-x="621" 
d="M667 712l-268 -279l164 -433h-79l-142 383l-181 -183l-40 -200h-72l143 712h72l-81 -405l393 405h91z" />
    <glyph glyph-name="L" unicode="L" horiz-adv-x="546" 
d="M482 63l-12 -63h-421l143 712h72l-130 -649h348z" />
    <glyph glyph-name="M" unicode="M" horiz-adv-x="775" 
d="M772 712l-143 -712h-73l110 542l-268 -414h-62l-104 420l-110 -548h-73l143 712h70l119 -495l320 495h71z" />
    <glyph glyph-name="N" unicode="N" horiz-adv-x="696" 
d="M692 712l-143 -712h-67l-245 577l-116 -577h-72l143 712h67l245 -577l115 577h73z" />
    <glyph glyph-name="O" unicode="O" horiz-adv-x="617" 
d="M590 526q0 -34 -25 -170q-24 -128 -44.5 -185t-61.5 -98q-79 -79 -193 -79q-86 0 -141.5 53t-55.5 139q0 39 24 170q24 128 44.5 185t61.5 98q79 79 193 79q86 0 142 -53.5t56 -138.5zM516 522q0 62 -37.5 97.5t-88.5 35.5q-82 0 -141 -61q-28 -28 -45 -77t-38 -161
q-24 -127 -24 -166q0 -62 37.5 -97.5t88.5 -35.5q82 0 141 61q28 28 45 77t38 161q24 127 24 166z" />
    <glyph glyph-name="P" unicode="P" horiz-adv-x="598" 
d="M615 540q0 -104 -68 -173t-184 -69h-182l-60 -298h-72l143 712h242q92 0 136.5 -49.5t44.5 -122.5zM542 537q0 48 -28.5 79.5t-89.5 31.5h-173l-57 -287h172q78 0 127 49.5t49 126.5z" />
    <glyph glyph-name="Q" unicode="Q" horiz-adv-x="617" 
d="M590 526q0 -34 -25 -170q-23 -123 -42 -178t-55 -96l60 -78l-49 -43l-61 79q-68 -46 -152 -46q-86 0 -141.5 53t-55.5 139q0 39 24 170q24 128 44.5 185t61.5 98q79 79 193 79q86 0 142 -53.5t56 -138.5zM516 522q0 62 -37.5 97.5t-88.5 35.5q-82 0 -141 -61
q-28 -28 -45 -77t-38 -161q-24 -127 -24 -166q0 -62 37.5 -97.5t88.5 -35.5q61 0 110 37l-71 92l49 43l69 -89q20 27 34 73t33 143q24 127 24 166z" />
    <glyph glyph-name="R" unicode="R" horiz-adv-x="626" 
d="M614 548q0 -81 -50 -143.5t-138 -79.5l104 -325h-80l-98 320h-166l-65 -320h-72l143 712h245q93 0 135 -47t42 -117zM541 544q0 49 -28.5 76.5t-84.5 27.5h-176l-54 -266h178q77 0 121 49t44 113z" />
    <glyph glyph-name="S" unicode="S" horiz-adv-x="559" 
d="M552 636l-52 -44q-28 32 -60 48t-83 16q-79 0 -127.5 -48t-48.5 -112q0 -74 102 -98l67 -15q81 -19 117.5 -59t36.5 -114q0 -101 -76.5 -158.5t-191.5 -57.5q-74 0 -125 23t-95 75l55 48q65 -82 172 -82q79 0 133.5 42t54.5 107q0 51 -26 75t-75 35l-67 16
q-154 36 -154 160q0 39 15 77.5t44 72t80 54.5t116 21q119 0 188 -82z" />
    <glyph glyph-name="T" unicode="T" horiz-adv-x="520" 
d="M585 712l-13 -64h-194l-130 -648h-73l130 648h-196l13 64h463z" />
    <glyph glyph-name="U" unicode="U" horiz-adv-x="649" 
d="M654 712l-95 -478q-23 -115 -97.5 -177.5t-181.5 -62.5q-80 0 -139 49.5t-59 143.5q0 24 7 61l92 464h73l-94 -471q-5 -27 -5 -51q0 -54 32.5 -93t99.5 -39q72 0 128 48t74 140l92 466h73z" />
    <glyph glyph-name="V" unicode="V" horiz-adv-x="519" 
d="M604 712l-361 -712h-60l-83 712h73l64 -582l288 582h79z" />
    <glyph glyph-name="W" unicode="W" horiz-adv-x="815" 
d="M890 712l-309 -712h-68l-38 573l-267 -573h-67l-33 712h75l20 -577l264 577h65l37 -577l243 577h78z" />
    <glyph glyph-name="X" unicode="X" horiz-adv-x="526" 
d="M587 712l-262 -351l141 -361h-81l-112 302l-223 -302h-85l279 371l-130 341h81l101 -284l205 284h86z" />
    <glyph glyph-name="Y" unicode="Y" horiz-adv-x="490" 
d="M575 712l-282 -421l-59 -291h-73l60 296l-121 416h76l94 -344l224 344h81z" />
    <glyph glyph-name="Z" unicode="Z" horiz-adv-x="532" 
d="M565 712l-12 -60l-452 -588h341l-13 -64h-423l14 67l447 581h-324l12 64h410z" />
    <glyph glyph-name="bracketleft" unicode="[" horiz-adv-x="300" 
d="M362 786l-13 -62h-96l-147 -736h104l-12 -62h-174l171 860h167z" />
    <glyph glyph-name="backslash" unicode="\" horiz-adv-x="335" 
d="M272 -74h-66l-99 856h66z" />
    <glyph glyph-name="bracketright" unicode="]" horiz-adv-x="300" 
d="M320 786l-171 -860h-167l12 59h99l148 742h-108l12 59h175z" />
    <glyph glyph-name="asciicircum" unicode="^" horiz-adv-x="514" 
d="M481 413h-68l-72 232l-165 -232h-75l217 305h67z" />
    <glyph glyph-name="underscore" unicode="_" 
d="M425 -113l-10 -49h-497l11 49h496z" />
    <glyph glyph-name="grave" unicode="`" horiz-adv-x="475" 
d="M350 589h-60l-72 151h80z" />
    <glyph glyph-name="a" unicode="a" horiz-adv-x="501" 
d="M443 371q0 -9 -5 -39l-66 -332h-69l11 49q-55 -55 -141 -55q-65 0 -106.5 29t-41.5 91q0 72 44 115q53 52 145 52h144l11 52q4 18 4 33q0 35 -26 54t-73 19q-80 0 -133 -59l-41 48q65 71 178 71q30 0 56 -5.5t52 -18.5t41.5 -39.5t15.5 -64.5zM348 229h-127
q-58 0 -92.5 -29t-34.5 -82q0 -65 98 -65q66 0 105 39q31 29 40 80z" />
    <glyph glyph-name="b" unicode="b" horiz-adv-x="519" 
d="M470 343q0 -40 -11 -96q-28 -145 -85 -202q-51 -51 -131 -51q-91 0 -124 69l-13 -63h-69l142 712h70l-55 -275q49 62 135 62q68 0 104.5 -40t36.5 -116zM399 334q0 103 -88 103q-69 0 -103.5 -50.5t-51.5 -139.5q-11 -55 -11 -88q0 -103 89 -103q69 0 103 51t51 140
q11 55 11 87z" />
    <glyph glyph-name="c" unicode="c" horiz-adv-x="466" 
d="M450 426l-52 -44q-37 55 -97 55q-62 0 -109 -48q-47 -50 -64 -142q-8 -42 -8 -74q0 -58 31 -87.5t76 -29.5q65 0 119 57l41 -50q-69 -69 -164 -69q-84 0 -128.5 49.5t-44.5 127.5q0 40 7 76q22 122 88.5 187t162.5 65q90 0 142 -73z" />
    <glyph glyph-name="d" unicode="d" horiz-adv-x="519" 
d="M527 712l-142 -712h-69l12 59q-54 -65 -137 -65q-141 0 -141 155q0 45 11 98q28 143 85 200q52 52 132 52q88 0 122 -68l57 281h70zM375 336q0 101 -89 101q-69 0 -103 -50.5t-51 -139.5q-11 -55 -11 -89q0 -102 88 -102q69 0 103.5 51t51.5 140q11 55 11 89z" />
    <glyph glyph-name="e" unicode="e" horiz-adv-x="506" 
d="M453 330q0 -44 -12 -101h-317q-6 -31 -6 -62q0 -51 26.5 -81.5t79.5 -30.5q74 0 138 58l42 -47q-76 -72 -186 -72q-76 0 -122 43.5t-46 126.5q0 59 14 115.5t41.5 107t76 81.5t111.5 31q76 0 118 -47.5t42 -121.5zM385 330q0 54 -27 82t-68 28q-115 0 -157 -160h248
q4 32 4 50z" />
    <glyph glyph-name="f" unicode="f" horiz-adv-x="299" 
d="M364 714l-12 -60h-36q-64 0 -78 -70l-19 -95h102l-11 -53h-102l-87 -436h-70l87 436h-59l10 53h59l20 99q25 126 143 126h53z" />
    <glyph glyph-name="g" unicode="g" horiz-adv-x="517" 
d="M481 493l-101 -504q-12 -63 -38 -107.5t-59.5 -66.5t-65.5 -31t-67 -9q-95 0 -151 66l50 44q41 -50 101 -50q57 0 100.5 37.5t60.5 116.5l16 76q-50 -63 -136 -63q-66 0 -103.5 40t-37.5 112q0 39 11 97q26 140 83 197q51 51 132 51q91 0 124 -69l12 63h69zM374 337
q0 100 -89 100q-67 0 -101.5 -50.5t-51.5 -136.5q-11 -57 -11 -86q0 -100 89 -100q117 0 153 187q11 57 11 86z" />
    <glyph glyph-name="h" unicode="h" horiz-adv-x="535" 
d="M474 360q0 -22 -5 -49l-63 -311h-70l61 304q5 27 5 46q0 43 -24.5 65t-64.5 22q-12 0 -26 -2.5t-33 -11t-35 -22.5t-30.5 -39.5t-21.5 -59.5l-60 -302h-70l142 712h70l-54 -271q53 58 143 58q59 0 97.5 -37t38.5 -102z" />
    <glyph glyph-name="i" unicode="i" horiz-adv-x="241" 
d="M205 493l-98 -493h-70l98 493h70zM251 706l-15 -73h-79l14 73h80z" />
    <glyph glyph-name="j" unicode="j" horiz-adv-x="241" 
d="M205 493l-116 -585q-26 -128 -145 -128h-51l12 60h34q66 0 80 75l116 578h70zM251 706l-15 -73h-79l14 73h80z" />
    <glyph glyph-name="k" unicode="k" horiz-adv-x="513" 
d="M501 492l-196 -191l133 -301h-81l-106 256l-115 -109l-29 -147h-70l142 712h70l-94 -471l256 251h90z" />
    <glyph glyph-name="l" unicode="l" horiz-adv-x="285" 
d="M247 712l-116 -578q-4 -19 -4 -33q0 -41 54 -41h41l-12 -60h-52q-40 0 -70.5 22t-30.5 72q0 23 4 40l116 578h70z" />
    <glyph glyph-name="m" unicode="m" horiz-adv-x="834" 
d="M773 360q0 -24 -5 -49l-62 -311h-71l61 304q6 32 6 46q0 43 -25 65t-65 22q-16 0 -34 -5t-41.5 -17.5t-42.5 -41.5t-27 -71l-61 -302h-70l61 304q5 27 5 46q0 43 -24.5 65t-64.5 22q-12 0 -26 -2.5t-33 -11t-35 -22.5t-30.5 -39.5t-21.5 -59.5l-60 -302h-70l98 493h69
l-11 -55q53 61 146 61q87 0 123 -82q66 82 173 82q60 0 99 -37.5t39 -101.5z" />
    <glyph glyph-name="n" unicode="n" horiz-adv-x="535" 
d="M474 360q0 -22 -5 -49l-63 -311h-70l61 304q5 27 5 46q0 43 -24.5 65t-64.5 22q-12 0 -26 -2.5t-33 -11t-35 -22.5t-30.5 -39.5t-21.5 -59.5l-60 -302h-70l98 493h69l-11 -55q53 61 146 61q59 0 97 -37t38 -102z" />
    <glyph glyph-name="o" unicode="o" horiz-adv-x="502" 
d="M452 336q0 -37 -9 -89q-27 -140 -93 -199q-60 -54 -141 -54q-24 0 -49 7t-51 23.5t-42.5 51t-16.5 82.5q0 37 9 89q27 140 93 199q59 53 141 53q25 0 49.5 -7t50.5 -23t42.5 -50.5t16.5 -82.5zM383 333q0 53 -27.5 78.5t-67.5 25.5q-54 0 -92 -38q-45 -45 -66 -152
q-11 -57 -11 -87q0 -53 27.5 -78.5t67.5 -25.5q53 0 92 39q45 45 66 152q11 57 11 86z" />
    <glyph glyph-name="p" unicode="p" horiz-adv-x="519" 
d="M470 345q0 -42 -11 -98q-29 -145 -85 -201q-52 -52 -132 -52q-88 0 -122 68l-57 -281h-70l142 712h69l-12 -58q53 64 137 64q75 0 108 -42.5t33 -111.5zM399 336q0 101 -88 101q-69 0 -103.5 -50.5t-51.5 -139.5q-11 -55 -11 -89q0 -102 89 -102q69 0 103 51t51 140
q11 55 11 89z" />
    <glyph glyph-name="q" unicode="q" horiz-adv-x="519" 
d="M483 493l-142 -712h-71l55 276q-49 -63 -135 -63q-68 0 -104.5 40t-36.5 116q0 41 11 97q28 145 85 202q50 50 132 50q90 0 123 -69l13 63h70zM374 334q0 103 -89 103q-69 0 -103 -50.5t-51 -139.5q-11 -55 -11 -88q0 -103 88 -103q69 0 103.5 51t51.5 140q11 55 11 87z
" />
    <glyph glyph-name="r" unicode="r" horiz-adv-x="399" 
d="M437 453l-57 -51q-27 35 -70 35q-52 0 -92 -38.5t-51 -96.5l-60 -302h-70l98 493h69l-12 -60q48 66 138 66q67 0 107 -46z" />
    <glyph glyph-name="s" unicode="s" horiz-adv-x="471" 
d="M434 444l-50 -43q-46 40 -115 40q-58 0 -90.5 -30t-32.5 -70q0 -45 73 -56l66 -9q65 -10 92.5 -38t27.5 -83q0 -61 -49 -107q-55 -54 -169 -54q-117 0 -182 71l52 45q48 -56 136 -56q67 0 104.5 30.5t37.5 68.5q0 31 -17 44t-52 18l-67 10q-123 18 -123 107q0 66 46 112
q55 55 156 55q97 0 156 -55z" />
    <glyph glyph-name="t" unicode="t" horiz-adv-x="319" 
d="M314 489l-11 -53h-96l-61 -302q-4 -19 -4 -32q0 -42 55 -42h40l-13 -60h-50q-40 0 -71 22t-31 72q0 16 4 40l60 302h-61l10 53h62l31 154h70l-31 -154h97z" />
    <glyph glyph-name="u" unicode="u" horiz-adv-x="535" 
d="M498 493l-98 -493h-69l10 55q-53 -61 -145 -61q-59 0 -97.5 37t-38.5 102q0 17 6 49l62 311h70l-61 -304q-5 -27 -5 -46q0 -43 25 -65t65 -22q16 0 34 5t41.5 17.5t42.5 41.5t27 71l60 302h71z" />
    <glyph glyph-name="v" unicode="v" horiz-adv-x="425" 
d="M464 493l-268 -493h-63l-73 493h71l50 -397l205 397h78z" />
    <glyph glyph-name="w" unicode="w" horiz-adv-x="688" 
d="M724 493l-239 -493h-64l-48 382l-197 -382h-64l-51 493h71l31 -394l200 394h57l47 -394l183 394h74z" />
    <glyph glyph-name="x" unicode="x" horiz-adv-x="458" 
d="M467 493l-197 -244l114 -249h-82l-81 196l-152 -196h-86l206 256l-108 237h81l78 -185l141 185h86z" />
    <glyph glyph-name="y" unicode="y" horiz-adv-x="424" 
d="M462 493l-328 -611q-22 -41 -42 -59q-36 -33 -102 -33h-31l13 62h21q34 0 51.5 13.5t37.5 51.5l49 94l-71 482h70l51 -397l204 397h77z" />
    <glyph glyph-name="z" unicode="z" horiz-adv-x="440" 
d="M439 493l-12 -59l-330 -372h262l-12 -62h-347l12 59l329 372h-247l12 62h333z" />
    <glyph glyph-name="braceleft" unicode="{" horiz-adv-x="338" 
d="M397 786l-13 -62h-25q-41 0 -54.5 -15t-22.5 -59l-39 -194q-9 -45 -28 -68t-53 -33q43 -24 43 -71q0 -18 -3 -33l-37 -185q-5 -25 -5 -39q0 -23 12 -31t41 -8h33l-12 -62h-40q-106 0 -106 90q0 8 6 44l38 188q3 12 1 35q-4 44 -51 44h-20l13 62h24q27 0 48 19
q19 16 28 60l38 189q8 42 17 64t29 39q31 26 95 26h43z" />
    <glyph glyph-name="bar" unicode="|" horiz-adv-x="310" 
d="M298 786l-172 -860h-69l171 860h70z" />
    <glyph glyph-name="braceright" unicode="}" horiz-adv-x="338" 
d="M321 385l-13 -62h-24q-28 0 -49 -19q-19 -16 -28 -60l-37 -189q-8 -42 -17 -64t-29 -39q-31 -26 -95 -26h-43l12 62h26q41 0 54.5 15t22.5 59l39 194q9 45 28 68t53 33q-43 24 -43 71q0 18 3 33l37 185q5 25 5 39q0 23 -12 31t-41 8h-33l12 62h40q105 0 105 -90
q0 -14 -5 -44l-38 -188q-3 -12 -1 -35q4 -44 50 -44h21z" />
    <glyph glyph-name="asciitilde" unicode="~" horiz-adv-x="513" 
d="M476 275q-72 -64 -131 -64q-41 0 -101 32q-41 22 -70 22q-36 0 -90 -44l-37 47q73 65 132 65q40 0 100 -32q43 -23 70 -23q37 0 91 44z" />
    <glyph glyph-name="nbspace" unicode="&#xa0;" horiz-adv-x="236" 
 />
    <glyph glyph-name="exclamdown" unicode="&#xa1;" horiz-adv-x="301" 
d="M176 296l-91 -515h-82l113 515h60zM224 493l-17 -86h-83l17 86h83z" />
    <glyph glyph-name="cent" unicode="&#xa2;" horiz-adv-x="476" 
d="M481 541l-52 -42q-35 52 -86 56l-71 -378q57 4 106 56l41 -48q-63 -65 -156 -71l-22 -114h-57l23 117q-64 12 -98.5 60.5t-34.5 117.5q0 74 23.5 142t77 119.5t127.5 59.5l18 96h57l-19 -95q77 -8 123 -76zM293 552q-39 -8 -87 -76q-28 -38 -44 -91t-15 -102
q1 -45 22 -70.5t54 -32.5z" />
    <glyph glyph-name="sterling" unicode="&#xa3;" horiz-adv-x="522" 
d="M549 653l-53 -46q-35 47 -100 47q-69 0 -112 -43t-58 -121l-21 -107h141l-11 -51h-140l-53 -268h298l-13 -64h-371l67 332h-60l9 51h61l23 115q45 220 249 220q90 0 144 -65z" />
    <glyph glyph-name="currency" unicode="&#xa4;" horiz-adv-x="643" 
d="M625 509h-73q0 67 -35 106.5t-96 39.5q-79 0 -139 -60q-41 -41 -64 -140h209l-9 -47h-210l-19 -98h210l-9 -47h-208q-7 -41 -7 -75q0 -60 39 -95.5t95 -35.5q60 0 112.5 39.5t77.5 106.5h74q-28 -88 -96.5 -148.5t-173.5 -60.5q-85 0 -143 51.5t-58 140.5q0 30 8 77h-64
l8 47h64l18 98h-63l9 47h64q15 68 34 110t52 75q78 78 189 78q99 0 151 -57.5t53 -151.5z" />
    <glyph glyph-name="yen" unicode="&#xa5;" horiz-adv-x="490" 
d="M575 712l-211 -315h95l-10 -50h-119l-37 -55l-10 -50h146l-10 -51h-146l-38 -191h-73l38 191h-145l10 51h145l11 54l-15 51h-121l10 50h96l-91 315h76l94 -344l224 344h81z" />
    <glyph glyph-name="brokenbar" unicode="&#xa6;" horiz-adv-x="319" 
d="M298 786l-70 -350h-70l70 350h70zM196 276l-70 -350h-69l69 350h70z" />
    <glyph glyph-name="section" unicode="&#xa7;" horiz-adv-x="528" 
d="M497 584q0 -14 -1 -19h-68q4 43 -20.5 67t-65.5 24q-54 0 -88.5 -32t-34.5 -84q0 -59 65 -81l67 -22q40 -14 69 -48.5t29 -92.5q0 -69 -33.5 -125.5t-101.5 -86.5q68 -33 68 -116q0 -86 -56 -139.5t-150 -53.5q-68 0 -110 36.5t-42 100.5q0 14 1 21h69q-5 -45 19 -70
t72 -25q53 0 89.5 33t36.5 91q0 63 -66 86l-67 22q-40 14 -69 48.5t-29 92.5q0 69 34 126t101 86q-65 37 -65 115q0 81 57 130.5t138 49.5q74 0 113 -40.5t39 -93.5zM380 291q0 45 -26 68.5t-64 23.5q-50 0 -87 -34q-38 -35 -50 -96q-4 -19 -4 -37q0 -48 28 -70.5t62 -22.5
q49 0 87 35q38 36 50 95q4 19 4 38z" />
    <glyph glyph-name="dieresis" unicode="&#xa8;" horiz-adv-x="475" 
d="M461 685l-17 -88h-71l18 88h70zM260 685l-18 -88h-69l17 88h70z" />
    <glyph glyph-name="copyright" unicode="&#xa9;" horiz-adv-x="835" 
d="M781 356q0 -142 -100.5 -243t-243.5 -101t-243.5 101t-100.5 243t100.5 243t243.5 101t243.5 -101t100.5 -243zM725 356q0 120 -84.5 206t-203.5 86t-203 -86t-84 -206t84 -206t203 -86t203.5 86t84.5 206zM566 213q-56 -50 -124 -50q-80 0 -124.5 53.5t-44.5 139.5
t44.5 140t124.5 54q66 0 124 -51l-35 -35q-42 37 -89 37q-61 0 -88.5 -40t-27.5 -105t27.5 -105t88.5 -40q47 0 89 37z" />
    <glyph glyph-name="ordfeminine" unicode="&#xaa;" horiz-adv-x="427" 
d="M419 613q0 -16 -3 -31l-53 -264h-55l7 38q-37 -43 -111 -43q-51 0 -84.5 23.5t-33.5 73.5q0 56 36 91q41 41 114 41h114l8 41q4 20 4 27q0 55 -77 55q-37 0 -60.5 -10t-45.5 -34l-34 40q55 55 143 55q32 0 59 -7.5t49.5 -31.5t22.5 -64zM342 499h-100q-44 0 -71.5 -23.5
t-27.5 -63.5q0 -50 77 -50q52 0 83 31q23 23 30 61z" />
    <glyph glyph-name="guillemotleft" unicode="&#xab;" horiz-adv-x="528" 
d="M285 478l-19 -95l-138 -121l91 -121l-16 -84l-161 211zM501 478l-19 -95l-139 -121l93 -121l-17 -84l-161 211z" />
    <glyph glyph-name="logicalnot" unicode="&#xac;" 
d="M460 308l-41 -204h-64l28 139h-335l13 65h399z" />
    <glyph glyph-name="registered" unicode="&#xae;" horiz-adv-x="835" 
d="M781 356q0 -142 -100.5 -243t-243.5 -101t-243.5 101t-100.5 243t100.5 243t243.5 101t243.5 -101t100.5 -243zM726 356q0 121 -84.5 207t-204.5 86t-204 -86t-84 -207t84 -207t204 -86t204.5 86t84.5 207zM582 168h-62l-86 154h-56v-154h-54v377h129q50 0 84.5 -33
t34.5 -80q0 -40 -22 -66.5t-58 -37.5zM518 432q0 28 -20 47t-51 19h-69v-131h69q31 0 51 18.5t20 46.5z" />
    <glyph glyph-name="macron" unicode="&#xaf;" horiz-adv-x="475" 
d="M466 666l-12 -54h-286l10 54h288z" />
    <glyph glyph-name="degree" unicode="&#xb0;" horiz-adv-x="456" 
d="M450 556q0 -68 -47 -114.5t-115 -46.5t-114.5 46.5t-46.5 114.5t46.5 115t114.5 47t115 -47t47 -115zM391 556q0 44 -30 74.5t-73 30.5q-44 0 -73 -30t-29 -75t29 -75t73 -30t73.5 30t29.5 75z" />
    <glyph glyph-name="plusminus" unicode="&#xb1;" 
d="M467 352l-13 -64h-165l-35 -179h-65l36 179h-167l13 64h167l35 177h65l-36 -177h165zM412 64l-13 -64h-397l13 64h397z" />
    <glyph glyph-name="twosuperior" unicode="&#xb2;" horiz-adv-x="325" 
d="M352 617q0 -59 -62 -123l-156 -159h168l-10 -50h-237l10 50l188 193q43 43 43 85q0 53 -52 53q-63 0 -75 -67h-55q23 117 135 117q51 0 77 -27.5t26 -71.5z" />
    <glyph glyph-name="threesuperior" unicode="&#xb3;" horiz-adv-x="338" 
d="M359 614q0 -83 -72 -112q42 -24 42 -85q0 -57 -37 -97t-105 -40q-58 0 -85 29t-27 65q0 12 2 24h56q-8 -68 59 -68q31 0 56 22.5t25 64.5q0 31 -13 46.5t-46 15.5h-9l10 48h8q41 0 60.5 25t19.5 60q0 28 -15 41t-36 13q-61 0 -77 -64h-56q26 114 137 114q47 0 75 -28
t28 -74z" />
    <glyph glyph-name="acute" unicode="&#xb4;" horiz-adv-x="475" 
d="M455 740l-130 -151h-66l112 151h84z" />
    <glyph glyph-name="mu" unicode="&#xb5;" horiz-adv-x="536" 
d="M499 493l-98 -493h-69l10 55q-53 -61 -145 -61q-58 0 -90 40l-50 -253h-70l142 712h70l-61 -304q-5 -27 -5 -46q0 -43 25 -65t65 -22q16 0 34 5t41.5 17.5t42.5 41.5t27 71l60 302h71z" />
    <glyph glyph-name="paragraph" unicode="&#xb6;" horiz-adv-x="574" 
d="M571 712l-186 -931h-70l172 866h-110l-173 -866h-70l112 561q-66 3 -109 51t-43 115q0 83 61.5 143.5t176.5 60.5h239z" />
    <glyph glyph-name="periodcentered" unicode="&#xb7;" horiz-adv-x="257" 
d="M187 315l-18 -90h-90l18 90h90z" />
    <glyph glyph-name="cedilla" unicode="&#xb8;" horiz-adv-x="475" 
d="M236 -66l-83 -146h-77l96 146h64z" />
    <glyph glyph-name="onesuperior" unicode="&#xb9;" horiz-adv-x="249" 
d="M269 712l-86 -427h-55l72 360l-95 -71l14 69l94 69h56z" />
    <glyph glyph-name="ordmasculine" unicode="&#xba;" horiz-adv-x="432" 
d="M425 586q0 -29 -7 -71q-22 -113 -74 -159q-48 -42 -112 -42q-20 0 -39.5 5.5t-40.5 18.5t-34 40.5t-13 65.5q0 29 7 71q22 111 74 158q49 43 113 43q20 0 39.5 -5.5t40 -18.5t33.5 -40.5t13 -65.5zM369 582q0 43 -22 62.5t-53 19.5q-43 0 -72 -29q-36 -36 -53 -120
q-8 -44 -8 -68q0 -43 22 -62.5t53 -19.5q43 0 73 30q35 35 52 120q8 44 8 67z" />
    <glyph glyph-name="guillemotright" unicode="&#xbb;" horiz-adv-x="528" 
d="M496 267l-243 -210l19 95l138 121l-91 121l16 84zM280 267l-243 -210l19 95l139 121l-93 121l17 84z" />
    <glyph glyph-name="onequarter" unicode="&#xbc;" horiz-adv-x="744" 
d="M634 712l-458 -712h-60l458 712h60zM683 427l-204 -310h104l21 104h54l-21 -104h45l-9 -51h-46l-13 -66h-54l13 66h-165l10 51l203 310h62zM269 712l-86 -427h-55l72 360l-95 -71l13 68l95 70h56z" />
    <glyph glyph-name="onehalf" unicode="&#xbd;" horiz-adv-x="758" 
d="M728 332q0 -58 -63 -123l-155 -159h168l-11 -50h-237l11 50l188 193q43 43 43 85q0 53 -52 53q-63 0 -75 -67h-56q23 117 135 117q51 0 77.5 -27.5t26.5 -71.5zM623 712l-459 -712h-60l459 712h60zM269 712l-86 -427h-55l72 360l-95 -71l13 68l95 70h56z" />
    <glyph glyph-name="threequarters" unicode="&#xbe;" horiz-adv-x="794" 
d="M359 614q0 -83 -72 -112q42 -24 42 -85q0 -57 -37 -97t-105 -40q-58 0 -85 29t-27 65q0 12 2 24h56q-8 -68 59 -68q31 0 56 22.5t25 64.5q0 31 -13 46.5t-46 15.5h-9l10 48h8q41 0 60.5 25t19.5 60q0 28 -15 41t-36 13q-61 0 -77 -64h-56q26 114 137 114q47 0 75 -28
t28 -74zM689 712l-459 -712h-59l458 712h60zM731 117l-10 -51h-46l-13 -66h-54l14 66h-166l10 51l203 310h62l-204 -310h104l21 104h54l-21 -104h46z" />
    <glyph glyph-name="questiondown" unicode="&#xbf;" horiz-adv-x="474" 
d="M347 -47q-16 -84 -72.5 -131t-141.5 -47q-62 0 -105.5 40t-43.5 107q0 78 70 158l101 117q24 28 30 58l8 42h70l-9 -45q-11 -53 -48 -95l-100 -115q-51 -59 -51 -116q0 -38 23.5 -63t65.5 -25q50 0 85.5 30.5t46.5 84.5h71zM302 493l-16 -86h-83l16 86h83z" />
    <glyph glyph-name="Agrave" unicode="&#xc0;" horiz-adv-x="581" 
d="M521 0h-74l-22 162h-296l-87 -162h-78l389 712h61zM418 223l-53 384l-204 -384h257zM416 776h-60l-72 151h80z" />
    <glyph glyph-name="Aacute" unicode="&#xc1;" horiz-adv-x="581" 
d="M521 0h-74l-22 162h-296l-87 -162h-78l389 712h61zM418 223l-53 384l-204 -384h257zM522 927l-130 -151h-66l112 151h84z" />
    <glyph glyph-name="Acircumflex" unicode="&#xc2;" horiz-adv-x="581" 
d="M521 0h-74l-22 162h-296l-87 -162h-78l389 712h61zM418 223l-53 384l-204 -384h257zM529 781h-63l-64 106l-109 -106h-69l150 153h65z" />
    <glyph glyph-name="Atilde" unicode="&#xc3;" horiz-adv-x="581" 
d="M521 0h-74l-22 162h-296l-87 -162h-78l389 712h61zM418 223l-53 384l-204 -384h257zM538 840q-50 -47 -97 -47q-34 0 -69 24q-25 19 -51 19q-27 0 -62 -34l-30 39q50 47 96 47q37 0 70 -24q28 -19 51 -19q27 0 62 34z" />
    <glyph glyph-name="Adieresis" unicode="&#xc4;" horiz-adv-x="581" 
d="M521 0h-74l-22 162h-296l-87 -162h-78l389 712h61zM418 223l-53 384l-204 -384h257zM542 872l-17 -88h-71l18 88h70zM341 872l-18 -88h-69l17 88h70z" />
    <glyph glyph-name="Aring" unicode="&#xc5;" horiz-adv-x="581" 
d="M521 0h-74l-22 162h-296l-87 -162h-78l389 712h61zM418 223l-53 384l-204 -384h257zM509 867q0 -49 -34.5 -84t-83.5 -35t-83 34.5t-34 84.5q0 49 34 83t83 34t83.5 -34t34.5 -83zM462 867q0 28 -21.5 48.5t-49.5 20.5t-49 -20.5t-21 -48.5t21 -49.5t49 -21.5t49.5 21.5
t21.5 49.5z" />
    <glyph glyph-name="AE" unicode="&#xc6;" horiz-adv-x="881" 
d="M920 712l-13 -63h-346l-52 -260h296l-13 -64h-296l-52 -262h351l-13 -63h-423l34 173h-232l-120 -173h-82l499 712h462zM489 649l-287 -415h204z" />
    <glyph glyph-name="Ccedilla" unicode="&#xc7;" horiz-adv-x="607" 
d="M592 509h-73q0 67 -35 106.5t-96 39.5q-78 0 -138 -60q-29 -29 -46 -79t-38 -160q-24 -124 -24 -168q0 -60 39 -95.5t95 -35.5q69 0 118 42t72 104h74q-31 -98 -103 -153.5t-164 -55.5q-87 0 -145.5 51.5t-58.5 140.5q0 45 24 170q24 129 44 185.5t62 98.5q78 78 189 78
q99 0 151 -57.5t53 -151.5zM297 -66l-83 -146h-77l96 146h64z" />
    <glyph glyph-name="Egrave" unicode="&#xc8;" horiz-adv-x="572" 
d="M611 712l-13 -63h-346l-52 -258h297l-12 -63h-297l-54 -265h353l-12 -63h-426l143 712h419zM429 776h-60l-72 151h80z" />
    <glyph glyph-name="Eacute" unicode="&#xc9;" horiz-adv-x="572" 
d="M611 712l-13 -63h-346l-52 -258h297l-12 -63h-297l-54 -265h353l-12 -63h-426l143 712h419zM520 927l-130 -151h-66l112 151h84z" />
    <glyph glyph-name="Ecircumflex" unicode="&#xca;" horiz-adv-x="572" 
d="M611 712l-13 -63h-346l-52 -258h297l-12 -63h-297l-54 -265h353l-12 -63h-426l143 712h419zM540 781h-63l-64 106l-109 -106h-69l150 153h65z" />
    <glyph glyph-name="Edieresis" unicode="&#xcb;" horiz-adv-x="572" 
d="M611 712l-13 -63h-346l-52 -258h297l-12 -63h-297l-54 -265h353l-12 -63h-426l143 712h419zM542 872l-17 -88h-71l18 88h70zM341 872l-18 -88h-69l17 88h70z" />
    <glyph glyph-name="Igrave" unicode="&#xcc;" horiz-adv-x="268" 
d="M264 712l-143 -712h-72l143 712h72zM263 776h-60l-72 151h80z" />
    <glyph glyph-name="Iacute" unicode="&#xcd;" horiz-adv-x="268" 
d="M264 712l-143 -712h-72l143 712h72zM366 927l-130 -151h-66l112 151h84z" />
    <glyph glyph-name="Icircumflex" unicode="&#xce;" horiz-adv-x="268" 
d="M264 712l-143 -712h-72l143 712h72zM380 781h-63l-64 106l-109 -106h-69l150 153h65z" />
    <glyph glyph-name="Idieresis" unicode="&#xcf;" horiz-adv-x="268" 
d="M264 712l-143 -712h-72l143 712h72zM389 872l-17 -88h-71l18 88h70zM188 872l-18 -88h-69l17 88h70z" />
    <glyph glyph-name="Eth" unicode="&#xd0;" horiz-adv-x="653" 
d="M626 518q0 -44 -21 -154q-25 -130 -50 -193.5t-72 -105.5q-73 -65 -185 -65h-236l66 331h-73l11 56h73l66 325h222q84 0 141.5 -45.5t57.5 -148.5zM554 515q0 63 -35 98.5t-106 35.5h-148l-53 -262h154l-11 -56h-154l-54 -268h147q88 0 144 51q32 29 53 85t41 165
q22 114 22 151z" />
    <glyph glyph-name="Ntilde" unicode="&#xd1;" horiz-adv-x="696" 
d="M692 712l-143 -712h-67l-245 577l-116 -577h-72l143 712h67l245 -577l115 577h73zM597 840q-50 -47 -97 -47q-36 0 -69 24q-26 19 -51 19q-28 0 -62 -34l-30 39q48 47 96 47q35 0 70 -24q27 -19 51 -19q25 0 62 34z" />
    <glyph glyph-name="Ograve" unicode="&#xd2;" horiz-adv-x="617" 
d="M590 526q0 -34 -25 -170q-24 -128 -44.5 -185t-61.5 -98q-79 -79 -193 -79q-86 0 -141.5 53t-55.5 139q0 39 24 170q24 128 44.5 185t61.5 98q79 79 193 79q86 0 142 -53.5t56 -138.5zM516 522q0 62 -37.5 97.5t-88.5 35.5q-82 0 -141 -61q-28 -28 -45 -77t-38 -161
q-24 -127 -24 -166q0 -62 37.5 -97.5t88.5 -35.5q82 0 141 61q28 28 45 77t38 161q24 127 24 166zM440 776h-60l-72 151h80z" />
    <glyph glyph-name="Oacute" unicode="&#xd3;" horiz-adv-x="617" 
d="M590 526q0 -34 -25 -170q-24 -128 -44.5 -185t-61.5 -98q-79 -79 -193 -79q-86 0 -141.5 53t-55.5 139q0 39 24 170q24 128 44.5 185t61.5 98q79 79 193 79q86 0 142 -53.5t56 -138.5zM516 522q0 62 -37.5 97.5t-88.5 35.5q-82 0 -141 -61q-28 -28 -45 -77t-38 -161
q-24 -127 -24 -166q0 -62 37.5 -97.5t88.5 -35.5q82 0 141 61q28 28 45 77t38 161q24 127 24 166zM545 927l-130 -151h-66l112 151h84z" />
    <glyph glyph-name="Ocircumflex" unicode="&#xd4;" horiz-adv-x="617" 
d="M590 526q0 -34 -25 -170q-24 -128 -44.5 -185t-61.5 -98q-79 -79 -193 -79q-86 0 -141.5 53t-55.5 139q0 39 24 170q24 128 44.5 185t61.5 98q79 79 193 79q86 0 142 -53.5t56 -138.5zM516 522q0 62 -37.5 97.5t-88.5 35.5q-82 0 -141 -61q-28 -28 -45 -77t-38 -161
q-24 -127 -24 -166q0 -62 37.5 -97.5t88.5 -35.5q82 0 141 61q28 28 45 77t38 161q24 127 24 166zM553 781h-63l-64 106l-109 -106h-69l150 153h65z" />
    <glyph glyph-name="Otilde" unicode="&#xd5;" horiz-adv-x="617" 
d="M590 526q0 -34 -25 -170q-24 -128 -44.5 -185t-61.5 -98q-79 -79 -193 -79q-86 0 -141.5 53t-55.5 139q0 39 24 170q24 128 44.5 185t61.5 98q79 79 193 79q86 0 142 -53.5t56 -138.5zM516 522q0 62 -37.5 97.5t-88.5 35.5q-82 0 -141 -61q-28 -28 -45 -77t-38 -161
q-24 -127 -24 -166q0 -62 37.5 -97.5t88.5 -35.5q82 0 141 61q28 28 45 77t38 161q24 127 24 166zM562 840q-50 -47 -97 -47q-36 0 -69 24q-26 19 -51 19q-28 0 -62 -34l-30 39q48 47 96 47q35 0 70 -24q27 -19 51 -19q25 0 62 34z" />
    <glyph glyph-name="Odieresis" unicode="&#xd6;" horiz-adv-x="617" 
d="M590 526q0 -34 -25 -170q-24 -128 -44.5 -185t-61.5 -98q-79 -79 -193 -79q-86 0 -141.5 53t-55.5 139q0 39 24 170q24 128 44.5 185t61.5 98q79 79 193 79q86 0 142 -53.5t56 -138.5zM516 522q0 62 -37.5 97.5t-88.5 35.5q-82 0 -141 -61q-28 -28 -45 -77t-38 -161
q-24 -127 -24 -166q0 -62 37.5 -97.5t88.5 -35.5q82 0 141 61q28 28 45 77t38 161q24 127 24 166zM560 872l-17 -88h-71l18 88h70zM359 872l-18 -88h-69l17 88h70z" />
    <glyph glyph-name="multiply" unicode="&#xd7;" 
d="M468 416l-172 -149l115 -152l-49 -43l-115 152l-172 -149l-37 48l172 149l-115 153l50 43l115 -153l172 149z" />
    <glyph glyph-name="Oslash" unicode="&#xd8;" horiz-adv-x="618" 
d="M619 756l-70 -107q41 -50 41 -123q0 -39 -24 -170q-24 -128 -44.5 -185t-61.5 -98q-79 -79 -193 -79q-69 0 -117 33l-46 -71h-63l69 107q-42 52 -42 123q0 34 25 170q24 128 44.5 185t61.5 98q79 79 193 79q69 0 117 -33l46 71h64zM142 190q0 -34 12 -60l318 495
q-34 30 -82 30q-82 0 -141 -61q-28 -28 -45 -77t-38 -161q-24 -127 -24 -166zM516 522q0 34 -12 59l-319 -495q33 -29 83 -29q82 0 141 61q28 28 45 77t38 161q24 127 24 166z" />
    <glyph glyph-name="Ugrave" unicode="&#xd9;" horiz-adv-x="649" 
d="M654 712l-95 -478q-23 -115 -97.5 -177.5t-181.5 -62.5q-80 0 -139 49.5t-59 143.5q0 24 7 61l92 464h73l-94 -471q-5 -27 -5 -51q0 -54 32.5 -93t99.5 -39q72 0 128 48t74 140l92 466h73zM463 776h-60l-72 151h80z" />
    <glyph glyph-name="Uacute" unicode="&#xda;" horiz-adv-x="649" 
d="M654 712l-95 -478q-23 -115 -97.5 -177.5t-181.5 -62.5q-80 0 -139 49.5t-59 143.5q0 24 7 61l92 464h73l-94 -471q-5 -27 -5 -51q0 -54 32.5 -93t99.5 -39q72 0 128 48t74 140l92 466h73zM568 927l-130 -151h-66l112 151h84z" />
    <glyph glyph-name="Ucircumflex" unicode="&#xdb;" horiz-adv-x="649" 
d="M654 712l-95 -478q-23 -115 -97.5 -177.5t-181.5 -62.5q-80 0 -139 49.5t-59 143.5q0 24 7 61l92 464h73l-94 -471q-5 -27 -5 -51q0 -54 32.5 -93t99.5 -39q72 0 128 48t74 140l92 466h73zM577 781h-63l-64 106l-109 -106h-69l150 153h65z" />
    <glyph glyph-name="Udieresis" unicode="&#xdc;" horiz-adv-x="649" 
d="M654 712l-95 -478q-23 -115 -97.5 -177.5t-181.5 -62.5q-80 0 -139 49.5t-59 143.5q0 24 7 61l92 464h73l-94 -471q-5 -27 -5 -51q0 -54 32.5 -93t99.5 -39q72 0 128 48t74 140l92 466h73zM580 872l-17 -88h-71l18 88h70zM379 872l-18 -88h-69l17 88h70z" />
    <glyph glyph-name="Yacute" unicode="&#xdd;" horiz-adv-x="490" 
d="M575 712l-282 -421l-59 -291h-73l60 296l-121 416h76l94 -344l224 344h81zM473 927l-130 -151h-66l112 151h84z" />
    <glyph glyph-name="Thorn" unicode="&#xde;" horiz-adv-x="611" 
d="M586 396q0 -105 -68 -174t-184 -69h-181l-32 -153h-72l143 712h72l-29 -144h169q92 0 137 -49.5t45 -122.5zM513 392q0 48 -28.5 80t-89.5 32h-172l-58 -287h172q78 0 127 49t49 126z" />
    <glyph glyph-name="germandbls" unicode="&#xdf;" horiz-adv-x="531" 
d="M525 574q0 -44 -22.5 -83t-64.5 -62q44 -24 44 -77q0 -15 -5 -38l-33 -172q-13 -68 -55 -105t-106 -37h-57l11 60h41q32 0 60 21t37 68l34 170q3 15 3 25q0 29 -17.5 43.5t-45.5 14.5h-44l12 58h35q47 0 75 34t28 78q0 39 -20 59q-27 27 -76 27q-120 0 -147 -136
l-105 -522h-70l105 525q39 194 224 194q71 0 115 -38t44 -107z" />
    <glyph glyph-name="agrave" unicode="&#xe0;" horiz-adv-x="501" 
d="M443 371q0 -9 -5 -39l-66 -332h-69l11 49q-55 -55 -141 -55q-65 0 -106.5 29t-41.5 91q0 72 44 115q53 52 145 52h144l11 52q4 18 4 33q0 35 -26 54t-73 19q-80 0 -133 -59l-41 48q65 71 178 71q30 0 56 -5.5t52 -18.5t41.5 -39.5t15.5 -64.5zM348 229h-127
q-58 0 -92.5 -29t-34.5 -82q0 -65 98 -65q66 0 105 39q31 29 40 80zM348 589h-60l-72 151h80z" />
    <glyph glyph-name="aacute" unicode="&#xe1;" horiz-adv-x="501" 
d="M443 371q0 -9 -5 -39l-66 -332h-69l11 49q-55 -55 -141 -55q-65 0 -106.5 29t-41.5 91q0 72 44 115q53 52 145 52h144l11 52q4 18 4 33q0 35 -26 54t-73 19q-80 0 -133 -59l-41 48q65 71 178 71q30 0 56 -5.5t52 -18.5t41.5 -39.5t15.5 -64.5zM348 229h-127
q-58 0 -92.5 -29t-34.5 -82q0 -65 98 -65q66 0 105 39q31 29 40 80zM453 740l-130 -151h-66l112 151h84z" />
    <glyph glyph-name="acircumflex" unicode="&#xe2;" horiz-adv-x="501" 
d="M443 371q0 -9 -5 -39l-66 -332h-69l11 49q-55 -55 -141 -55q-65 0 -106.5 29t-41.5 91q0 72 44 115q53 52 145 52h144l11 52q4 18 4 33q0 35 -26 54t-73 19q-80 0 -133 -59l-41 48q65 71 178 71q30 0 56 -5.5t52 -18.5t41.5 -39.5t15.5 -64.5zM348 229h-127
q-58 0 -92.5 -29t-34.5 -82q0 -65 98 -65q66 0 105 39q31 29 40 80zM459 594h-63l-64 106l-109 -106h-69l150 153h65z" />
    <glyph glyph-name="atilde" unicode="&#xe3;" horiz-adv-x="501" 
d="M443 371q0 -9 -5 -39l-66 -332h-69l11 49q-55 -55 -141 -55q-65 0 -106.5 29t-41.5 91q0 72 44 115q53 52 145 52h144l11 52q4 18 4 33q0 35 -26 54t-73 19q-80 0 -133 -59l-41 48q65 71 178 71q30 0 56 -5.5t52 -18.5t41.5 -39.5t15.5 -64.5zM348 229h-127
q-58 0 -92.5 -29t-34.5 -82q0 -65 98 -65q66 0 105 39q31 29 40 80zM470 654q-50 -47 -97 -47q-36 0 -69 24q-28 19 -51 19q-25 0 -62 -34l-30 39q50 47 96 47q37 0 70 -24q26 -19 51 -19q27 0 62 34z" />
    <glyph glyph-name="adieresis" unicode="&#xe4;" horiz-adv-x="501" 
d="M443 371q0 -9 -5 -39l-66 -332h-69l11 49q-55 -55 -141 -55q-65 0 -106.5 29t-41.5 91q0 72 44 115q53 52 145 52h144l11 52q4 18 4 33q0 35 -26 54t-73 19q-80 0 -133 -59l-41 48q65 71 178 71q30 0 56 -5.5t52 -18.5t41.5 -39.5t15.5 -64.5zM348 229h-127
q-58 0 -92.5 -29t-34.5 -82q0 -65 98 -65q66 0 105 39q31 29 40 80zM464 685l-17 -88h-71l18 88h70zM263 685l-18 -88h-69l17 88h70z" />
    <glyph glyph-name="aring" unicode="&#xe5;" horiz-adv-x="501" 
d="M443 371q0 -9 -5 -39l-66 -332h-69l11 49q-55 -55 -141 -55q-65 0 -106.5 29t-41.5 91q0 72 44 115q53 52 145 52h144l11 52q4 18 4 33q0 35 -26 54t-73 19q-80 0 -133 -59l-41 48q65 71 178 71q30 0 56 -5.5t52 -18.5t41.5 -39.5t15.5 -64.5zM441 687q0 -49 -34.5 -84
t-83.5 -35q-48 0 -82.5 35t-34.5 84t34.5 83t82.5 34q49 0 83.5 -34t34.5 -83zM348 229h-127q-58 0 -92.5 -29t-34.5 -82q0 -65 98 -65q66 0 105 39q31 29 40 80zM394 687q0 28 -21 48.5t-50 20.5q-28 0 -49 -20.5t-21 -48.5t21 -49.5t49 -21.5q29 0 50 21t21 50z" />
    <glyph glyph-name="ae" unicode="&#xe6;" horiz-adv-x="799" 
d="M746 331q0 -45 -12 -102h-317q-6 -31 -6 -62q0 -51 26.5 -81.5t79.5 -30.5q74 0 138 58l42 -47q-76 -72 -185 -72q-51 0 -91 22.5t-59 63.5q-57 -86 -179 -86q-158 0 -158 120q0 71 44 115q51 52 145 52h144l11 51q4 18 4 34q0 35 -26 54t-73 19q-80 0 -133 -59l-41 48
q65 71 178 71q115 0 149 -77q61 77 159 77q76 0 118 -47t42 -121zM348 229h-127q-58 0 -92.5 -29t-34.5 -82q0 -65 98 -65q66 0 105 39q31 29 40 79zM678 331q0 54 -26.5 81.5t-67.5 27.5q-116 0 -158 -159h248q4 32 4 50z" />
    <glyph glyph-name="ccedilla" unicode="&#xe7;" horiz-adv-x="466" 
d="M450 426l-52 -44q-37 55 -97 55q-62 0 -109 -48q-47 -50 -64 -142q-8 -42 -8 -74q0 -58 31 -87.5t76 -29.5q65 0 119 57l41 -50q-69 -69 -164 -69q-84 0 -128.5 49.5t-44.5 127.5q0 40 7 76q22 122 88.5 187t162.5 65q90 0 142 -73zM242 -66l-83 -146h-77l96 146h64z" />
    <glyph glyph-name="egrave" unicode="&#xe8;" horiz-adv-x="506" 
d="M453 330q0 -44 -12 -101h-317q-6 -31 -6 -62q0 -51 26.5 -81.5t79.5 -30.5q74 0 138 58l42 -47q-76 -72 -186 -72q-76 0 -122 43.5t-46 126.5q0 59 14 115.5t41.5 107t76 81.5t111.5 31q76 0 118 -47.5t42 -121.5zM385 330q0 54 -27 82t-68 28q-115 0 -157 -160h248
q4 32 4 50zM364 589h-60l-72 151h80z" />
    <glyph glyph-name="eacute" unicode="&#xe9;" horiz-adv-x="506" 
d="M453 330q0 -44 -12 -101h-317q-6 -31 -6 -62q0 -51 26.5 -81.5t79.5 -30.5q74 0 138 58l42 -47q-76 -72 -186 -72q-76 0 -122 43.5t-46 126.5q0 59 14 115.5t41.5 107t76 81.5t111.5 31q76 0 118 -47.5t42 -121.5zM385 330q0 54 -27 82t-68 28q-115 0 -157 -160h248
q4 32 4 50zM469 740l-130 -151h-66l112 151h84z" />
    <glyph glyph-name="ecircumflex" unicode="&#xea;" horiz-adv-x="506" 
d="M453 330q0 -44 -12 -101h-317q-6 -31 -6 -62q0 -51 26.5 -81.5t79.5 -30.5q74 0 138 58l42 -47q-76 -72 -186 -72q-76 0 -122 43.5t-46 126.5q0 59 14 115.5t41.5 107t76 81.5t111.5 31q76 0 118 -47.5t42 -121.5zM385 330q0 54 -27 82t-68 28q-115 0 -157 -160h248
q4 32 4 50zM474 594h-63l-64 106l-109 -106h-69l150 153h65z" />
    <glyph glyph-name="edieresis" unicode="&#xeb;" horiz-adv-x="506" 
d="M453 330q0 -44 -12 -101h-317q-6 -31 -6 -62q0 -51 26.5 -81.5t79.5 -30.5q74 0 138 58l42 -47q-76 -72 -186 -72q-76 0 -122 43.5t-46 126.5q0 59 14 115.5t41.5 107t76 81.5t111.5 31q76 0 118 -47.5t42 -121.5zM385 330q0 54 -27 82t-68 28q-115 0 -157 -160h248
q4 32 4 50zM478 685l-17 -88h-71l18 88h70zM277 685l-18 -88h-69l17 88h70z" />
    <glyph glyph-name="igrave" unicode="&#xec;" horiz-adv-x="241" 
d="M205 493l-98 -493h-70l98 493h70zM223 589h-60l-72 151h80z" />
    <glyph glyph-name="iacute" unicode="&#xed;" horiz-adv-x="241" 
d="M205 493l-98 -493h-70l98 493h70zM328 740l-130 -151h-66l112 151h84z" />
    <glyph glyph-name="icircumflex" unicode="&#xee;" horiz-adv-x="241" 
d="M205 493l-98 -493h-70l98 493h70zM333 594h-63l-64 106l-109 -106h-69l150 153h65z" />
    <glyph glyph-name="idieresis" unicode="&#xef;" horiz-adv-x="241" 
d="M205 493l-98 -493h-70l98 493h70zM335 685l-17 -88h-71l18 88h70zM134 685l-18 -88h-69l17 88h70z" />
    <glyph glyph-name="eth" unicode="&#xf0;" horiz-adv-x="504" 
d="M451 331q0 -34 -10 -86q-28 -143 -93 -199q-59 -52 -139 -52q-25 0 -49.5 7t-50.5 23.5t-42 50.5t-16 82q0 38 10 88q28 140 92 197q53 48 123 51q46 3 76 -13l-38 101h-112l10 51h87l-30 82h70l29 -82h78l-9 -51h-54l40 -111q28 -81 28 -139zM381 332q0 53 -27 77.5
t-66 24.5q-53 0 -91 -38q-44 -43 -66 -151q-10 -53 -10 -87q0 -53 27 -78t66 -25q52 0 91 39q44 43 66 151q10 53 10 87z" />
    <glyph glyph-name="ntilde" unicode="&#xf1;" horiz-adv-x="535" 
d="M474 360q0 -22 -5 -49l-63 -311h-70l61 304q5 27 5 46q0 43 -24.5 65t-64.5 22q-12 0 -26 -2.5t-33 -11t-35 -22.5t-30.5 -39.5t-21.5 -59.5l-60 -302h-70l98 493h69l-11 -55q53 61 146 61q59 0 97 -37t38 -102zM500 654q-50 -47 -97 -47q-36 0 -69 24q-28 19 -51 19
q-27 0 -62 -34l-30 39q48 47 96 47q35 0 70 -24q25 -19 51 -19q27 0 62 34z" />
    <glyph glyph-name="ograve" unicode="&#xf2;" horiz-adv-x="502" 
d="M452 336q0 -37 -9 -89q-27 -140 -93 -199q-60 -54 -141 -54q-24 0 -49 7t-51 23.5t-42.5 51t-16.5 82.5q0 37 9 89q27 140 93 199q59 53 141 53q25 0 49.5 -7t50.5 -23t42.5 -50.5t16.5 -82.5zM383 333q0 53 -27.5 78.5t-67.5 25.5q-54 0 -92 -38q-45 -45 -66 -152
q-11 -57 -11 -87q0 -53 27.5 -78.5t67.5 -25.5q53 0 92 39q45 45 66 152q11 57 11 86zM343 589h-60l-72 151h80z" />
    <glyph glyph-name="oacute" unicode="&#xf3;" horiz-adv-x="502" 
d="M452 336q0 -37 -9 -89q-27 -140 -93 -199q-60 -54 -141 -54q-24 0 -49 7t-51 23.5t-42.5 51t-16.5 82.5q0 37 9 89q27 140 93 199q59 53 141 53q25 0 49.5 -7t50.5 -23t42.5 -50.5t16.5 -82.5zM383 333q0 53 -27.5 78.5t-67.5 25.5q-54 0 -92 -38q-45 -45 -66 -152
q-11 -57 -11 -87q0 -53 27.5 -78.5t67.5 -25.5q53 0 92 39q45 45 66 152q11 57 11 86zM466 740l-130 -151h-66l112 151h84z" />
    <glyph glyph-name="ocircumflex" unicode="&#xf4;" horiz-adv-x="502" 
d="M452 336q0 -37 -9 -89q-27 -140 -93 -199q-60 -54 -141 -54q-24 0 -49 7t-51 23.5t-42.5 51t-16.5 82.5q0 37 9 89q27 140 93 199q59 53 141 53q25 0 49.5 -7t50.5 -23t42.5 -50.5t16.5 -82.5zM383 333q0 53 -27.5 78.5t-67.5 25.5q-54 0 -92 -38q-45 -45 -66 -152
q-11 -57 -11 -87q0 -53 27.5 -78.5t67.5 -25.5q53 0 92 39q45 45 66 152q11 57 11 86zM471 594h-63l-64 106l-109 -106h-69l150 153h65z" />
    <glyph glyph-name="otilde" unicode="&#xf5;" horiz-adv-x="502" 
d="M452 336q0 -37 -9 -89q-27 -140 -93 -199q-60 -54 -141 -54q-24 0 -49 7t-51 23.5t-42.5 51t-16.5 82.5q0 37 9 89q27 140 93 199q59 53 141 53q25 0 49.5 -7t50.5 -23t42.5 -50.5t16.5 -82.5zM383 333q0 53 -27.5 78.5t-67.5 25.5q-54 0 -92 -38q-45 -45 -66 -152
q-11 -57 -11 -87q0 -53 27.5 -78.5t67.5 -25.5q53 0 92 39q45 45 66 152q11 57 11 86zM483 654q-50 -47 -97 -47q-36 0 -69 24q-28 19 -51 19q-25 0 -62 -34l-30 39q50 47 96 47q37 0 70 -24q26 -19 51 -19q27 0 62 34z" />
    <glyph glyph-name="odieresis" unicode="&#xf6;" horiz-adv-x="502" 
d="M452 336q0 -37 -9 -89q-27 -140 -93 -199q-60 -54 -141 -54q-24 0 -49 7t-51 23.5t-42.5 51t-16.5 82.5q0 37 9 89q27 140 93 199q59 53 141 53q25 0 49.5 -7t50.5 -23t42.5 -50.5t16.5 -82.5zM383 333q0 53 -27.5 78.5t-67.5 25.5q-54 0 -92 -38q-45 -45 -66 -152
q-11 -57 -11 -87q0 -53 27.5 -78.5t67.5 -25.5q53 0 92 39q45 45 66 152q11 57 11 86zM476 685l-17 -88h-71l18 88h70zM275 685l-18 -88h-69l17 88h70z" />
    <glyph glyph-name="divide" unicode="&#xf7;" 
d="M459 302l-13 -64h-399l13 64h399zM335 484l-16 -84h-83l17 84h82zM270 140l-16 -83h-83l17 83h82z" />
    <glyph glyph-name="oslash" unicode="&#xf8;" horiz-adv-x="503" 
d="M497 537l-73 -97q29 -39 29 -104q0 -37 -9 -89q-26 -138 -93 -199q-60 -54 -141 -54q-59 0 -99 30l-51 -68h-55l74 99q-29 41 -29 103q0 32 10 89q26 138 93 199q59 53 141 53q57 0 97 -29l50 67h56zM384 333q0 26 -8 47l-226 -302q23 -22 64 -22q54 0 93 39
q45 45 66 152q11 57 11 86zM120 160q0 -26 6 -45l226 301q-25 21 -63 21q-54 0 -92 -38q-46 -46 -67 -152q-10 -51 -10 -87z" />
    <glyph glyph-name="ugrave" unicode="&#xf9;" horiz-adv-x="535" 
d="M498 493l-98 -493h-69l10 55q-53 -61 -145 -61q-59 0 -97.5 37t-38.5 102q0 17 6 49l62 311h70l-61 -304q-5 -27 -5 -46q0 -43 25 -65t65 -22q16 0 34 5t41.5 17.5t42.5 41.5t27 71l60 302h71zM373 589h-60l-72 151h80z" />
    <glyph glyph-name="uacute" unicode="&#xfa;" horiz-adv-x="535" 
d="M498 493l-98 -493h-69l10 55q-53 -61 -145 -61q-59 0 -97.5 37t-38.5 102q0 17 6 49l62 311h70l-61 -304q-5 -27 -5 -46q0 -43 25 -65t65 -22q16 0 34 5t41.5 17.5t42.5 41.5t27 71l60 302h71zM478 740l-130 -151h-66l112 151h84z" />
    <glyph glyph-name="ucircumflex" unicode="&#xfb;" horiz-adv-x="535" 
d="M498 493l-98 -493h-69l10 55q-53 -61 -145 -61q-59 0 -97.5 37t-38.5 102q0 17 6 49l62 311h70l-61 -304q-5 -27 -5 -46q0 -43 25 -65t65 -22q16 0 34 5t41.5 17.5t42.5 41.5t27 71l60 302h71zM483 594h-63l-64 106l-109 -106h-69l150 153h65z" />
    <glyph glyph-name="udieresis" unicode="&#xfc;" horiz-adv-x="535" 
d="M498 493l-98 -493h-69l10 55q-53 -61 -145 -61q-59 0 -97.5 37t-38.5 102q0 17 6 49l62 311h70l-61 -304q-5 -27 -5 -46q0 -43 25 -65t65 -22q16 0 34 5t41.5 17.5t42.5 41.5t27 71l60 302h71zM488 685l-17 -88h-71l18 88h70zM287 685l-18 -88h-69l17 88h70z" />
    <glyph glyph-name="yacute" unicode="&#xfd;" horiz-adv-x="424" 
d="M462 493l-328 -611q-22 -41 -42 -59q-36 -33 -102 -33h-31l13 62h21q34 0 51.5 13.5t37.5 51.5l49 94l-71 482h70l51 -397l204 397h77zM419 740l-130 -151h-66l112 151h84z" />
    <glyph glyph-name="thorn" unicode="&#xfe;" horiz-adv-x="519" 
d="M470 345q0 -42 -11 -98q-29 -146 -85 -202q-51 -51 -131 -51q-90 0 -123 68l-57 -281h-70l186 931h70l-55 -275q50 62 136 62q71 0 105.5 -41.5t34.5 -112.5zM399 334q0 103 -88 103q-69 0 -103.5 -50.5t-51.5 -139.5q-11 -55 -11 -88q0 -103 89 -103q69 0 103 51t51 140
q11 55 11 87z" />
    <glyph glyph-name="ydieresis" unicode="&#xff;" horiz-adv-x="424" 
d="M462 493l-328 -611q-22 -41 -42 -59q-36 -33 -102 -33h-31l13 62h21q34 0 51.5 13.5t37.5 51.5l49 94l-71 482h70l51 -397l204 397h77zM432 685l-17 -88h-71l18 88h70zM231 685l-18 -88h-69l17 88h70z" />
    <glyph glyph-name="dotlessi" unicode="&#x131;" horiz-adv-x="241" 
d="M205 493l-98 -493h-70l98 493h70z" />
    <glyph glyph-name="Lslash" unicode="&#x141;" horiz-adv-x="555" 
d="M491 63l-12 -63h-421l58 291l-78 -46l13 66l79 46l71 355h72l-61 -310l166 98l-13 -66l-167 -98l-55 -273h348z" />
    <glyph glyph-name="lslash" unicode="&#x142;" horiz-adv-x="303" 
d="M291 496l-13 -63l-86 -50l-49 -249q-5 -23 -5 -33q0 -41 55 -41h41l-13 -60h-51q-40 0 -71 22t-31 72q0 23 4 40l42 208l-67 -39l12 64l68 38l61 307h70l-53 -265z" />
    <glyph glyph-name="OE" unicode="&#x152;" horiz-adv-x="936" 
d="M975 712l-13 -64h-340l-52 -257h293l-13 -63h-292l-54 -264h349l-13 -64h-416l13 66q-64 -72 -172 -72q-84 0 -140 52.5t-56 139.5q0 39 24 170q24 128 44.5 185t61.5 98q79 79 192 79q114 0 158 -87l16 81h410zM517 522q0 62 -38 97.5t-89 35.5q-82 0 -141 -61
q-28 -28 -44.5 -76t-38.5 -162q-24 -124 -24 -166q0 -62 37.5 -97.5t88.5 -35.5q82 0 141 61q28 28 44.5 76t38.5 162q25 129 25 166z" />
    <glyph glyph-name="oe" unicode="&#x153;" horiz-adv-x="821" 
d="M768 330q0 -44 -12 -101h-318q-6 -31 -6 -62q0 -51 27 -81.5t80 -30.5q74 0 138 58l42 -47q-76 -72 -186 -72q-115 0 -150 98q-60 -98 -174 -98q-24 0 -49 7t-51 23.5t-42.5 51t-16.5 82.5q0 37 9 89q26 138 93 199q59 53 141 53q50 0 88 -24t54 -73q60 97 173 97
q76 0 118 -47.5t42 -121.5zM383 333q0 53 -27.5 78.5t-67.5 25.5q-54 0 -92 -38q-45 -45 -66 -152q-11 -57 -11 -87q0 -53 27.5 -78.5t67.5 -25.5q53 0 92 39q45 45 66 152q11 57 11 86zM700 330q0 54 -27 82t-68 28q-115 0 -157 -160h247q5 40 5 50z" />
    <glyph glyph-name="Scaron" unicode="&#x160;" horiz-adv-x="559" 
d="M552 636l-52 -44q-28 32 -60 48t-83 16q-79 0 -127.5 -48t-48.5 -112q0 -74 102 -98l67 -15q81 -19 117.5 -59t36.5 -114q0 -101 -76.5 -158.5t-191.5 -57.5q-74 0 -125 23t-95 75l55 48q65 -82 172 -82q79 0 133.5 42t54.5 107q0 51 -26 75t-75 35l-67 16
q-154 36 -154 160q0 39 15 77.5t44 72t80 54.5t116 21q119 0 188 -82zM542 934l-150 -153h-66l-90 153h63l65 -106l108 106h70z" />
    <glyph glyph-name="scaron" unicode="&#x161;" horiz-adv-x="471" 
d="M434 444l-50 -43q-46 40 -115 40q-58 0 -90.5 -30t-32.5 -70q0 -45 73 -56l66 -9q65 -10 92.5 -38t27.5 -83q0 -61 -49 -107q-55 -54 -169 -54q-117 0 -182 71l52 45q48 -56 136 -56q67 0 104.5 30.5t37.5 68.5q0 31 -17 44t-52 18l-67 10q-123 18 -123 107q0 66 46 112
q55 55 156 55q97 0 156 -55zM476 747l-150 -153h-66l-90 153h63l65 -106l108 106h70z" />
    <glyph glyph-name="Ydieresis" unicode="&#x178;" horiz-adv-x="490" 
d="M575 712l-282 -421l-59 -291h-73l60 296l-121 416h76l94 -344l224 344h81zM496 872l-17 -88h-71l18 88h70zM295 872l-18 -88h-69l17 88h70z" />
    <glyph glyph-name="Zcaron" unicode="&#x17d;" horiz-adv-x="532" 
d="M565 712l-12 -60l-452 -588h341l-13 -64h-423l14 67l447 581h-324l12 64h410zM540 934l-150 -153h-66l-90 153h63l65 -106l108 106h70z" />
    <glyph glyph-name="zcaron" unicode="&#x17e;" horiz-adv-x="440" 
d="M439 493l-12 -59l-330 -372h262l-12 -62h-347l12 59l329 372h-247l12 62h333zM469 747l-150 -153h-66l-90 153h63l65 -106l108 106h70z" />
    <glyph glyph-name="florin" unicode="&#x192;" horiz-adv-x="383" 
d="M448 714l-12 -60h-43q-67 0 -93 -72l-72 -197h102l-12 -53h-109l-202 -551h-71l203 551h-92l10 53h101l72 197q24 65 62 98.5t109 33.5h47z" />
    <glyph glyph-name="circumflex" unicode="&#x2c6;" horiz-adv-x="475" 
d="M460 594h-63l-64 106l-109 -106h-69l150 153h65z" />
    <glyph glyph-name="caron" unicode="&#x2c7;" horiz-adv-x="475" 
d="M491 747l-150 -153h-66l-90 153h63l65 -106l108 106h70z" />
    <glyph glyph-name="breve" unicode="&#x2d8;" horiz-adv-x="475" 
d="M491 728q-27 -140 -178 -140q-63 0 -100 33t-37 83q0 12 2 24h55q-2 -39 21 -62t67 -23q92 0 115 85h55z" />
    <glyph glyph-name="dotaccent" unicode="&#x2d9;" horiz-adv-x="475" 
d="M368 701l-14 -72h-78l14 72h78z" />
    <glyph glyph-name="ring" unicode="&#x2da;" horiz-adv-x="475" 
d="M443 687q0 -49 -34.5 -84t-83.5 -35t-83 34.5t-34 84.5q0 49 34 83t83 34t83.5 -34t34.5 -83zM396 687q0 28 -21.5 48.5t-49.5 20.5t-49 -20.5t-21 -48.5t21 -49.5t49 -21.5t49.5 21.5t21.5 49.5z" />
    <glyph glyph-name="ogonek" unicode="&#x2db;" horiz-adv-x="475" 
d="M215 -208h-75l-24 147h62z" />
    <glyph glyph-name="tilde" unicode="&#x2dc;" horiz-adv-x="475" 
d="M472 654q-50 -47 -97 -47q-36 0 -69 24q-28 19 -51 19q-25 0 -62 -34l-30 39q50 47 96 47q37 0 70 -24q28 -19 51 -19q25 0 62 34z" />
    <glyph glyph-name="hungarumlaut" unicode="&#x2dd;" horiz-adv-x="475" 
d="M526 740l-131 -151h-65l112 151h84zM370 740l-131 -151h-65l112 151h84z" />
    <glyph glyph-name="endash" unicode="&#x2013;" 
d="M458 302l-13 -64h-396l12 64h397z" />
    <glyph glyph-name="emdash" unicode="&#x2014;" horiz-adv-x="871" 
d="M812 304l-13 -66h-729l13 66h729z" />
    <glyph glyph-name="quoteleft" unicode="&#x2018;" horiz-adv-x="250" 
d="M277 792l-33 -165h-84l17 85z" />
    <glyph glyph-name="quoteright" unicode="&#x2019;" horiz-adv-x="250" 
d="M261 712l-17 -85l-100 -80l33 165h84z" />
    <glyph glyph-name="quotesinglbase" unicode="&#x201a;" horiz-adv-x="250" 
d="M136 85l-17 -85l-101 -80l33 165h85z" />
    <glyph glyph-name="quotedblleft" unicode="&#x201c;" horiz-adv-x="413" 
d="M277 792l-33 -165h-84l17 85zM440 792l-34 -165h-83l17 85z" />
    <glyph glyph-name="quotedblright" unicode="&#x201d;" horiz-adv-x="413" 
d="M261 712l-17 -85l-100 -80l33 165h84zM424 712l-18 -85l-99 -80l33 165h84z" />
    <glyph glyph-name="quotedblbase" unicode="&#x201e;" horiz-adv-x="413" 
d="M136 85l-17 -85l-101 -80l33 165h85zM299 85l-18 -85l-100 -80l33 165h85z" />
    <glyph glyph-name="dagger" unicode="&#x2020;" horiz-adv-x="574" 
d="M556 507l-12 -62h-183l-89 -445h-70l89 445h-182l13 62h181l41 205h70l-41 -205h183z" />
    <glyph glyph-name="daggerdbl" unicode="&#x2021;" horiz-adv-x="574" 
d="M556 507l-12 -62h-183l-80 -395h185l-12 -62h-185l-41 -207h-70l42 207h-180l12 62h180l79 395h-182l13 62h181l41 205h70l-41 -205h183z" />
    <glyph glyph-name="bullet" unicode="&#x2022;" horiz-adv-x="505" 
d="M425 334q0 -68 -43.5 -111.5t-111.5 -43.5t-111.5 43.5t-43.5 111.5t43.5 111.5t111.5 43.5t111.5 -43.5t43.5 -111.5z" />
    <glyph glyph-name="ellipsis" unicode="&#x2026;" horiz-adv-x="721" 
d="M607 92l-17 -92h-90l19 92h88zM141 92l-18 -92h-89l19 92h88zM374 92l-18 -92h-88l18 92h88z" />
    <glyph glyph-name="perthousand" unicode="&#x2030;" horiz-adv-x="1129" 
d="M1066 263q0 -20 -3 -35l-18 -99q-26 -135 -152 -135q-43 0 -75.5 25.5t-32.5 79.5q0 20 3 35l19 99q26 135 151 135q43 0 75.5 -25.5t32.5 -79.5zM388 614q0 -20 -3 -35l-19 -99q-26 -135 -151 -135q-43 0 -75.5 25.5t-32.5 79.5q0 20 3 35l18 99q26 135 152 135
q43 0 75.5 -25.5t32.5 -79.5zM737 263q0 -20 -3 -35l-18 -99q-26 -135 -152 -135q-43 0 -75.5 25.5t-32.5 79.5q0 20 3 35l19 99q26 135 151 135q43 0 75.5 -25.5t32.5 -79.5zM682 712l-459 -712h-60l458 712h61zM334 610q0 60 -61 60q-74 0 -90 -86l-19 -103q-3 -13 -3 -27
q0 -60 61 -60q73 0 89 86l20 103q3 13 3 27zM1012 259q0 60 -61 60q-73 0 -89 -86l-20 -103q-2 -9 -2 -27q0 -60 60 -60q74 0 90 86l19 103q3 13 3 27zM683 259q0 60 -61 60q-73 0 -89 -86l-20 -103q-2 -9 -2 -27q0 -60 60 -60q74 0 90 86l19 103q3 13 3 27z" />
    <glyph glyph-name="guilsinglleft" unicode="&#x2039;" horiz-adv-x="312" 
d="M285 478l-19 -95l-138 -121l91 -121l-16 -84l-161 211z" />
    <glyph glyph-name="guilsinglright" unicode="&#x203a;" horiz-adv-x="312" 
d="M279 267l-242 -210l19 95l138 121l-92 121l17 84z" />
    <glyph glyph-name="fraction" unicode="&#x2044;" horiz-adv-x="179" 
d="M371 712l-459 -712h-60l459 712h60z" />
    <glyph glyph-name="Euro" unicode="&#x20ac;" horiz-adv-x="643" 
d="M625 509h-73q0 67 -35 106.5t-96 39.5q-79 0 -139 -60q-41 -41 -64 -140h209l-9 -47h-210l-19 -98h210l-9 -47h-208q-7 -41 -7 -75q0 -60 39 -95.5t95 -35.5q60 0 112.5 39.5t77.5 106.5h74q-28 -88 -96.5 -148.5t-173.5 -60.5q-85 0 -143 51.5t-58 140.5q0 30 8 77h-64
l8 47h64l18 98h-63l9 47h64q15 68 34 110t52 75q78 78 189 78q99 0 151 -57.5t53 -151.5z" />
    <glyph glyph-name="trademark" unicode="&#x2122;" horiz-adv-x="800" 
d="M838 712l-85 -427h-56l62 310l-135 -201h-54l-56 205l-64 -314h-55l84 427h55l72 -259l175 259h57zM407 712l-10 -51h-111l-76 -376h-55l75 376h-114l11 51h280z" />
    <glyph glyph-name="minus" unicode="&#x2212;" 
d="M458 303l-12 -64h-397l13 64h396z" />
    <glyph glyph-name="fi" unicode="&#xfb01;" horiz-adv-x="537" 
d="M364 714l-12 -60h-36q-64 0 -78 -70l-19 -95h102l-11 -53h-102l-87 -436h-70l87 436h-59l10 53h59l20 99q25 126 143 126h53zM499 489l-98 -489h-70l98 489h70zM546 712l-14 -72h-79l15 72h78z" />
    <glyph glyph-name="fl" unicode="&#xfb02;" horiz-adv-x="579" 
d="M364 714l-12 -60h-36q-64 0 -78 -70l-19 -95h102l-11 -53h-102l-87 -436h-70l87 436h-59l10 53h59l20 99q25 126 143 126h53zM541 712l-116 -578q-5 -23 -5 -33q0 -41 55 -41h41l-13 -60h-51q-40 0 -71 22t-31 72q0 23 4 40l116 578h71z" />
    <glyph glyph-name="eurocurrency" horiz-adv-x="505" 
d="M425 334q0 -68 -43.5 -111.5t-111.5 -43.5t-111.5 43.5t-43.5 111.5t43.5 111.5t111.5 43.5t111.5 -43.5t43.5 -111.5z" />
    </font>
</defs>
</svg>
